PathFileType	4	(X/Y/Z)	D:\Documents\paper\Opensim\Pipline\Result\suihongtao\30DJ0001\original_data\suihongtao_30DJ0001_static.trc	
DataRate	CameraRate	NumFrames	NumMarkers	Units	OrigDataRate	OrigDataStartFrame	OrigNumFrames	
200	200	12	27	mm	200	554	1108	
Frame#	Time	Top.Head			L.Acromium			R.Acromium			Sternum			L.ASIS			R.ASIS			L.PSIS			R.PSIS			V.Sacral			L.Thigh.Front			L.Knee.Lat			L.Knee.Med			L.Shank.Front			L.Ankle.Lat			L.Ankle.Med			L.Heel			L.Toe.Lat			L.Toe.Tip			R.Thigh.Front			R.Knee.Lat			R.Knee.Med			R.Shank.Front			R.Ankle.Lat			R.Ankle.Med			R.Heel			R.Toe.Lat			R.Toe.Tip
		X1	Y1	Z1	X2	Y2	Z2	X3	Y3	Z3	X4	Y4	Z4	X5	Y5	Z5	X6	Y6	Z6	X7	Y7	Z7	X8	Y8	Z8	X9	Y9	Z9	X10	Y10	Z10	X11	Y11	Z11	X12	Y12	Z12	X13	Y13	Z13	X14	Y14	Z14	X15	Y15	Z15	X16	Y16	Z16	X17	Y17	Z17	X18	Y18	Z18	X19	Y19	Z19	X20	Y20	Z20	X21	Y21	Z21	X22	Y22	Z22	X23	Y23	Z23	X24	Y24	Z24	X25	Y25	Z25	X26	Y26	Z26	X27	Y27	Z27
555	2.770000	348.493156	1628.459597	-773.157374	205.423883	1313.887347	-644.645026	489.684409	1310.648411	-858.650768	296.748526	1303.852225	-829.078788	181.648476	892.944652	-759.726929	358.469580	894.137513	-913.315175	361.961440	911.172551	-660.834888	438.611880	906.324284	-719.680154	400.286512	908.748613	-690.257450	211.125470	536.772198	-756.555170	213.976734	447.707041	-636.442113	324.457829	424.021325	-699.786455	237.979542	379.304403	-694.921968	224.630920	86.552961	-617.092010	276.609140	102.665034	-684.213226	292.098998	47.939827	-599.018751	143.011689	32.730730	-694.615512	165.450523	55.416404	-758.111080	359.914020	528.670114	-855.151057	486.818536	441.738906	-833.560984	396.605913	423.599866	-748.705977	434.830647	375.585691	-827.038090	505.341353	89.651829	-811.167021	431.206529	99.834465	-774.055618	501.129129	44.642975	-728.437376	473.601802	34.752288	-903.112140	388.654397	49.625511	-902.539775	
556	2.775000	348.479739	1628.462907	-773.191534	205.452829	1313.875052	-644.638593	489.706225	1310.637046	-858.638977	296.767507	1303.832934	-829.065669	181.665547	892.942498	-759.714513	358.492479	894.135805	-913.307906	361.982997	911.164159	-660.829263	438.632940	906.319681	-719.665396	400.307757	908.742210	-690.247274	211.153520	536.765687	-756.538839	213.989830	447.706718	-636.436127	324.465006	424.017051	-699.789648	237.985747	379.304651	-694.921841	224.632493	86.545859	-617.091170	276.609309	102.667176	-684.214166	292.099735	47.932033	-599.021506	143.012739	32.729592	-694.618194	165.454754	55.409873	-758.109936	359.930130	528.674792	-855.147743	486.831095	441.736212	-833.556277	396.635721	423.603093	-748.695570	434.840640	375.583039	-827.037887	505.346578	89.633813	-811.160946	431.209012	99.826591	-774.060846	501.128801	44.632070	-728.445965	473.602996	34.745766	-903.114811	388.657382	49.613307	-902.541791	
557	2.780000	348.467159	1628.466396	-773.224432	205.481193	1313.861914	-644.632220	489.726579	1310.628156	-858.628436	296.786680	1303.814593	-829.053412	181.681197	892.941276	-759.706168	358.515628	894.132035	-913.300677	362.005543	911.158824	-660.822410	438.655594	906.316117	-719.651561	400.330333	908.737771	-690.236970	211.180806	536.761489	-756.526182	214.005854	447.709918	-636.432912	324.472734	424.008044	-699.789152	237.993112	379.307274	-694.924557	224.638676	86.541943	-617.093409	276.609032	102.665053	-684.212692	292.100959	47.928515	-599.023865	143.014011	32.729703	-694.622309	165.458967	55.404484	-758.109563	359.945998	528.679450	-855.142583	486.842659	441.731618	-833.550641	396.664071	423.603625	-748.687434	434.850654	375.579561	-827.036592	505.337089	89.620147	-811.175372	431.213638	99.826897	-774.064487	501.129750	44.624612	-728.454704	473.605845	34.743688	-903.118549	388.660179	49.605102	-902.543069	
558	2.785000	348.455411	1628.469170	-773.255192	205.507931	1313.850418	-644.625980	489.745611	1310.620917	-858.619148	296.805567	1303.798520	-829.042999	181.697857	892.941347	-759.701272	358.539003	894.128041	-913.292996	362.030494	911.158442	-660.812485	438.678439	906.313820	-719.640060	400.354271	908.736356	-690.226291	211.203614	536.761103	-756.518855	214.022939	447.715595	-636.432593	324.481433	423.998489	-699.786030	238.001427	379.312043	-694.928770	224.648208	86.541318	-617.098833	276.608570	102.661136	-684.210126	292.102488	47.928910	-599.025879	143.015214	32.730445	-694.626400	165.462484	55.401454	-758.109652	359.961751	528.683784	-855.135766	486.853566	441.725160	-833.544606	396.686937	423.601517	-748.681538	434.860358	375.574561	-827.032411	505.297239	89.618768	-811.234502	431.219536	99.833737	-774.067491	501.132859	44.621715	-728.460706	473.610742	34.744447	-903.122826	388.662668	49.602474	-902.544033	
559	2.790000	348.444409	1628.471157	-773.283784	205.533292	1313.842920	-644.620394	489.763355	1310.613671	-858.609894	296.824367	1303.785569	-829.035650	181.717191	892.941842	-759.697328	358.561101	894.125320	-913.284100	362.057229	911.163880	-660.798829	438.702563	906.313148	-719.631302	400.379788	908.738618	-690.215100	211.220305	536.764286	-756.517322	214.039694	447.721975	-636.434153	324.490448	423.992526	-699.782252	238.009652	379.318894	-694.932201	224.659857	86.544236	-617.105703	276.607897	102.655485	-684.207841	292.104849	47.932883	-599.027996	143.015969	32.732492	-694.629605	165.464303	55.402047	-758.110605	359.976674	528.686828	-855.128316	486.863650	441.717844	-833.538776	396.700211	423.598235	-748.679888	434.870221	375.569120	-827.025292	505.214590	89.636249	-811.360756	431.224649	99.841393	-774.068909	501.137920	44.624698	-728.461592	473.617564	34.746155	-903.126940	388.665806	49.605204	-902.545480	
560	2.795000	348.434324	1628.473252	-773.310847	205.558518	1313.840356	-644.615640	489.779302	1310.605169	-858.598795	296.843481	1303.775556	-829.031456	181.739151	892.941320	-759.691728	358.580590	894.124213	-913.273737	362.083734	911.173997	-660.782763	438.729204	906.314040	-719.624400	400.406456	908.744007	-690.203627	211.232347	536.769917	-756.519839	214.055308	447.727373	-636.435960	324.498847	423.991485	-699.779632	238.017394	379.327507	-694.933331	224.672652	86.550272	-617.111574	276.606655	102.646519	-684.205570	292.108884	47.940326	-599.030152	143.016090	32.736830	-694.631608	165.464257	55.406589	-758.112740	359.989569	528.686872	-855.120932	486.872243	441.711767	-833.533351	396.702501	423.595724	-748.684406	434.880786	375.565907	-827.017184	505.093967	89.673008	-811.550504	431.227370	99.845498	-774.066973	501.143383	44.633479	-728.457317	473.624661	34.747885	-903.129680	388.670287	49.612192	-902.547778	
561	2.800000	348.425176	1628.476549	-773.337300	205.584269	1313.841638	-644.611365	489.793050	1310.595613	-858.584841	296.862806	1303.767050	-829.028665	181.762388	892.939305	-759.683594	358.597496	894.124183	-913.262761	362.108589	911.186727	-660.766809	438.757177	906.316418	-719.617734	400.432935	908.751499	-690.192342	211.243078	536.776643	-756.523526	214.068419	447.731176	-636.437245	324.506627	423.993938	-699.778567	238.025351	379.336924	-694.932284	224.684957	86.558970	-617.114417	276.604663	102.634251	-684.202480	292.114465	47.950275	-599.031842	143.016047	32.743756	-694.632245	165.462981	55.414429	-758.115822	360.000049	528.682942	-855.113482	486.879203	441.709134	-833.528136	396.698616	423.594027	-748.692032	434.891624	375.565847	-827.009676	504.966691	89.719805	-811.755591	431.227689	99.846407	-774.061936	501.147092	44.645683	-728.450365	473.629961	34.750216	-903.130040	388.675706	49.622103	-902.550448	
562	2.805000	348.416384	1628.481446	-773.363727	205.609233	1313.843727	-644.607290	489.805185	1310.586553	-858.568924	296.881870	1303.757724	-829.025555	181.785372	892.936823	-759.674081	358.613089	894.124751	-913.252963	362.131220	911.199738	-660.753620	438.783682	906.320764	-719.610648	400.457526	908.760184	-690.182240	211.254504	536.783977	-756.526689	214.077745	447.734082	-636.438572	324.514917	423.997016	-699.777846	238.034148	379.345913	-694.930137	224.694594	86.570165	-617.113633	276.602453	102.622429	-684.199367	292.119987	47.960617	-599.032908	143.016178	32.752310	-694.631603	165.460780	55.423967	-758.119187	360.009022	528.675890	-855.106112	486.885168	441.711314	-833.523196	396.697010	423.591546	-748.696288	434.901664	375.567201	-827.002594	504.867946	89.763485	-811.916972	431.226323	99.847857	-774.056533	501.147879	44.657961	-728.444446	473.633100	34.754341	-903.128712	388.680819	49.633094	-902.552699	
563	2.810000	348.407294	1628.487491	-773.389822	205.631070	1313.842923	-644.603547	489.816711	1310.579220	-858.553374	296.900150	1303.745762	-829.021829	181.806932	892.935202	-759.665076	358.628763	894.125917	-913.245759	362.151060	911.210266	-660.745353	438.806485	906.327496	-719.603545	400.478840	908.768858	-690.174584	211.265320	536.792422	-756.529363	214.083212	447.737137	-636.440328	324.524995	423.997411	-699.775783	238.043659	379.353042	-694.927573	224.699764	86.582731	-617.110169	276.601131	102.616978	-684.198348	292.123408	47.969422	-599.033430	143.016093	32.760389	-694.630287	165.457632	55.432928	-758.122127	360.018205	528.668641	-855.099893	486.891059	441.717684	-833.518764	396.702420	423.588165	-748.694839	434.910353	375.568464	-826.995491	504.805676	89.797678	-812.017846	431.224075	99.853170	-774.053420	501.146496	44.668611	-728.442107	473.634990	34.760732	-903.127303	388.683832	49.642999	-902.553743	
564	2.815000	348.398154	1628.493542	-773.414844	205.648454	1313.837462	-644.600242	489.828272	1310.573748	-858.540388	296.917109	1303.731300	-829.017876	181.826552	892.934834	-759.657527	358.645070	894.128107	-913.240753	362.167691	911.215565	-660.742426	438.825083	906.335751	-719.596157	400.496415	908.775671	-690.169447	211.273702	536.800927	-756.531752	214.085851	447.740598	-636.441804	324.536997	423.993818	-699.771689	238.053528	379.356545	-694.924572	224.699628	86.593930	-617.105687	276.601550	102.621048	-684.200503	292.123865	47.975793	-599.033124	143.015588	32.765884	-694.629186	165.454123	55.439154	-758.124396	360.029235	528.665155	-855.095748	486.898043	441.725992	-833.515160	396.714323	423.585168	-748.690266	434.917812	375.569910	-826.989075	504.778554	89.819802	-812.060139	431.222528	99.861620	-774.052364	501.144541	44.677923	-728.442926	473.635558	34.768972	-903.126316	388.683117	49.650545	-902.552898	
565	2.820000	348.389929	1628.497961	-773.438421	205.661518	1313.828974	-644.597155	489.840249	1310.570050	-858.530557	296.932497	1303.716299	-829.013775	181.844832	892.935233	-759.650499	358.661800	894.132471	-913.236451	362.182005	911.214632	-660.742832	438.840969	906.342910	-719.587905	400.511438	908.778796	-690.165543	211.280731	536.806152	-756.533554	214.087764	447.743496	-636.441241	324.549454	423.989416	-699.766353	238.063295	379.354907	-694.920893	224.694472	86.601260	-617.101567	276.603703	102.631451	-684.204319	292.121949	47.979441	-599.031510	143.015089	32.768030	-694.628876	165.451200	55.441781	-758.126196	360.042931	528.668225	-855.093607	486.907329	441.734356	-833.513205	396.731457	423.582739	-748.683861	434.924525	375.572902	-826.984315	504.806712	89.822321	-812.014550	431.223724	99.868768	-774.050290	501.142670	44.686320	-728.444046	473.633472	34.778560	-903.124863	388.678235	49.655431	-902.550208	
566	2.825000	348.383247	1628.499710	-773.460848	205.670741	1313.820748	-644.594280	489.852745	1310.568364	-858.522693	296.946635	1303.702651	-829.008842	181.862883	892.935044	-759.641750	358.678330	894.140234	-913.232182	362.196728	911.208900	-660.743888	438.856670	906.346330	-719.579567	400.526555	908.777640	-690.161926	211.289533	536.805983	-756.534119	214.091780	447.744210	-636.436834	324.560182	423.989464	-699.761133	238.072109	379.347896	-694.916338	224.685500	86.604254	-617.098434	276.607058	102.641409	-684.206967	292.118309	47.980076	-599.028365	143.014896	32.767729	-694.629377	165.449204	55.442238	-758.127467	360.058947	528.678055	-855.092985	486.919496	441.742034	-833.513210	396.753306	423.580735	-748.674148	434.931396	375.579393	-826.981409	504.906779	89.800059	-811.856287	431.228364	99.871102	-774.044567	501.140352	44.693209	-728.442586	473.627898	34.788590	-903.121857	388.669806	49.657138	-902.546677	
